<?xml version="1.0" standalone="no"?>
<!DOCTYPE svg PUBLIC "-//W3C//DTD SVG 20010904//EN"
 "http://www.w3.org/TR/2001/REC-SVG-20010904/DTD/svg10.dtd">
<svg version="1.0" xmlns="http://www.w3.org/2000/svg"
 width="1920.000000pt" height="94.000000pt" viewBox="0 0 1920.000000 94.000000"
 preserveAspectRatio="xMidYMid meet">
<metadata>
Created by potrace 1.14, written by Peter Selinger 2001-2017
</metadata>
<g transform="translate(0.000000,94.000000) scale(0.100000,-0.100000)"
fill="#9bc933" stroke="none">
<path d="M560 905 c0 -88 -63 -313 -131 -464 -30 -67 -34 -71 -42 -50 -13 35
-2 234 17 303 9 32 14 61 12 64 -9 8 -67 -63 -91 -113 -26 -52 -48 -135 -61
-220 l-7 -50 -9 34 c-5 19 -8 61 -6 93 2 32 0 58 -4 58 -14 0 -100 -119 -133
-184 -31 -60 -35 -65 -35 -38 0 32 -43 176 -60 202 -6 10 -10 -76 -10 -262 l0
-278 9600 0 9600 0 0 113 c-1 101 -2 109 -15 87 -13 -24 -14 -24 -49 53 -34
75 -56 97 -56 57 0 -11 -7 -37 -16 -58 l-16 -37 -18 57 c-20 64 -58 134 -88
161 -20 18 -20 18 -10 -25 19 -85 -10 -278 -43 -278 -18 0 -50 84 -59 157 -6
42 -12 78 -14 80 -8 9 -88 -71 -106 -106 l-19 -36 0 80 c-1 65 4 90 24 133 30
65 30 66 4 51 -34 -18 -107 -97 -136 -147 l-27 -45 -26 79 c-15 43 -37 99 -50
124 l-24 45 -7 -30 c-4 -16 -21 -86 -37 -155 -16 -69 -35 -138 -42 -155 l-12
-30 -24 30 c-41 50 -51 100 -31 153 9 26 14 48 12 50 -13 13 -125 -81 -176
-148 l-39 -52 0 41 c0 23 -7 58 -15 78 -18 42 -62 103 -74 103 -5 0 -11 -30
-13 -67 -3 -50 -12 -84 -33 -127 -17 -33 -34 -60 -40 -59 -5 0 -19 15 -30 34
-24 40 -27 150 -6 212 7 21 11 41 8 43 -10 10 -66 -26 -97 -63 -17 -21 -38
-64 -47 -96 l-17 -59 -18 36 c-19 37 -41 125 -53 211 l-7 50 -24 -45 c-12 -25
-35 -80 -49 -123 l-27 -77 -37 58 c-35 53 -114 132 -133 132 -11 0 -11 -1 18
-65 21 -44 28 -79 31 -149 l5 -91 -32 62 c-27 53 -90 123 -111 123 -3 0 -9
-32 -13 -72 -6 -70 -33 -149 -55 -162 -7 -5 -19 10 -33 41 -23 51 -31 179 -15
236 6 22 5 28 -5 25 -21 -7 -67 -89 -92 -163 l-23 -68 -18 61 c-10 34 -22 62
-25 62 -16 0 -44 -87 -44 -136 0 -44 -3 -51 -14 -42 -27 23 -64 112 -70 172
l-7 61 -46 -46 c-25 -25 -54 -64 -64 -87 -21 -48 -30 -47 -38 4 -7 39 -52 124
-67 124 -6 0 -10 -21 -10 -47 0 -46 -36 -143 -58 -157 -13 -8 -59 98 -67 156
-4 27 -11 48 -15 48 -14 0 -42 -84 -49 -150 l-7 -65 -8 49 c-12 67 -2 222 17
276 9 24 14 46 11 49 -17 17 -124 -143 -124 -188 0 -14 -2 -14 -10 -1 -5 8
-10 31 -10 51 0 54 -36 184 -66 239 -30 55 -79 118 -87 110 -3 -3 3 -36 13
-75 19 -70 25 -218 11 -280 l-6 -30 -18 46 c-10 25 -29 56 -42 69 l-25 23 0
-64 c0 -50 -6 -77 -29 -124 -15 -33 -38 -68 -49 -78 -21 -19 -21 -19 -32 24
-7 24 -10 78 -8 120 3 67 9 88 44 158 24 46 37 81 30 81 -18 0 -97 -53 -128
-86 -15 -16 -34 -42 -42 -59 -16 -30 -16 -30 -16 35 0 73 -19 157 -50 222 -23
49 -66 106 -74 98 -3 -3 6 -42 20 -85 26 -80 44 -246 30 -280 -5 -13 -14 -2
-37 44 -33 66 -53 80 -41 29 11 -50 7 -201 -5 -223 -11 -18 -14 -16 -35 30
-36 80 -37 212 -2 345 l7 25 -25 -23 c-58 -53 -107 -201 -108 -327 -1 -56 -2
-58 -14 -35 -24 44 -38 138 -31 203 l7 62 -37 -35 c-20 -19 -50 -57 -66 -85
-16 -27 -29 -45 -29 -40 0 6 11 66 25 135 29 147 31 206 9 301 -17 74 -34 91
-34 34 0 -88 -63 -313 -131 -464 -30 -67 -34 -71 -42 -50 -13 35 -2 234 17
303 9 32 14 61 12 64 -9 8 -67 -63 -91 -113 -26 -52 -48 -135 -61 -220 l-7
-50 -9 34 c-5 19 -8 61 -6 93 2 32 0 58 -3 58 -11 0 -79 -87 -115 -147 l-34
-57 0 156 0 156 -65 58 c-36 31 -68 54 -72 51 -3 -4 1 -24 10 -44 48 -109 48
-229 1 -392 l-15 -53 -23 21 c-13 12 -36 45 -52 74 -25 45 -29 63 -29 134 0
46 -3 83 -7 83 -4 0 -16 -26 -28 -57 -26 -69 -36 -181 -22 -243 10 -42 10 -43
-5 -25 -25 32 -60 116 -73 176 -13 56 -9 210 5 257 14 43 -14 22 -38 -30 -50
-106 -71 -196 -71 -308 l-1 -105 -49 99 c-42 85 -121 194 -132 183 -2 -2 5
-30 17 -63 14 -38 22 -92 25 -154 4 -90 4 -93 -9 -55 -22 64 -53 118 -87 150
l-32 30 9 -40 c12 -61 8 -156 -9 -195 l-16 -35 -21 48 c-34 78 -54 167 -55
250 0 42 -4 77 -7 77 -14 0 -61 -128 -66 -179 -6 -50 -7 -52 -19 -30 -23 45
-64 203 -71 273 l-6 69 -35 -69 c-43 -85 -87 -205 -97 -263 l-7 -43 -18 40
c-23 51 -90 150 -121 179 l-24 22 -1 -72 c-1 -40 -6 -85 -13 -101 l-12 -30
-27 46 c-26 44 -78 108 -98 120 -5 4 -9 -20 -9 -55 -1 -34 -7 -73 -15 -87
l-14 -25 -18 42 c-21 47 -27 128 -15 186 12 55 -9 47 -38 -15 -14 -29 -30 -79
-36 -111 l-12 -58 -28 52 c-31 56 -95 139 -108 139 -4 0 -6 -33 -3 -74 5 -80
-14 -184 -30 -168 -5 5 -14 43 -19 83 -12 99 -36 173 -74 227 -43 63 -57 65
-39 5 35 -115 24 -270 -23 -343 l-17 -25 -9 35 c-5 19 -7 79 -5 133 2 53 0 97
-5 97 -4 0 -21 -27 -36 -60 l-28 -60 -7 49 c-8 62 9 188 39 276 13 39 22 72
20 74 -8 7 -56 -55 -80 -104 -29 -57 -55 -168 -55 -235 l0 -45 -25 41 c-13 23
-39 52 -57 66 -37 28 -98 61 -103 56 -2 -2 15 -41 38 -87 40 -80 42 -89 41
-170 0 -47 -6 -99 -13 -116 l-13 -30 -24 30 c-48 59 -69 116 -69 187 0 38 -3
68 -7 68 -14 0 -58 -68 -64 -99 -10 -49 -23 -18 -30 71 -6 66 6 163 32 258 7
25 7 25 -25 -5 -65 -61 -130 -242 -132 -367 l0 -43 -23 61 c-25 67 -48 104
-95 148 -35 34 -37 32 -16 -17 10 -25 15 -70 14 -144 l0 -108 -22 60 c-12 33
-26 59 -32 58 -5 -1 -15 -29 -21 -61 -11 -54 -48 -142 -59 -142 -3 0 -17 24
-32 53 -19 38 -27 68 -27 110 l-1 59 -31 -36 c-32 -37 -54 -94 -54 -142 0 -25
-4 -20 -28 31 -17 34 -48 77 -73 100 l-44 40 -6 -65 c-3 -36 -15 -83 -26 -105
l-21 -40 -35 78 c-35 75 -57 97 -57 57 0 -11 -7 -37 -16 -58 l-16 -37 -18 57
c-20 64 -58 134 -88 161 -20 18 -20 18 -10 -25 19 -85 -10 -278 -43 -278 -18
0 -50 84 -59 157 -6 42 -12 78 -14 80 -8 9 -88 -71 -106 -106 l-19 -36 0 80
c-1 65 4 90 24 134 14 30 24 56 22 58 -14 13 -132 -110 -164 -172 l-16 -29
-27 79 c-15 44 -37 100 -50 125 l-24 45 -7 -30 c-4 -16 -21 -86 -37 -155 -16
-69 -35 -138 -42 -155 l-12 -30 -24 30 c-48 59 -52 109 -18 193 20 47 -115
-56 -172 -131 l-44 -59 0 41 c0 23 -7 58 -15 78 -18 42 -62 103 -74 103 -5 0
-11 -30 -13 -67 -3 -50 -12 -84 -34 -128 -16 -33 -34 -60 -39 -60 -5 0 -18 16
-29 35 -25 41 -28 151 -7 213 7 21 11 41 8 43 -10 10 -66 -26 -97 -63 -17 -21
-38 -64 -47 -96 l-17 -59 -18 36 c-19 37 -41 125 -53 211 l-7 50 -24 -45 c-12
-25 -35 -80 -49 -123 l-27 -77 -37 58 c-46 70 -141 156 -141 127 0 -4 7 -20
17 -38 26 -51 43 -127 43 -196 l0 -64 -31 61 c-26 52 -89 122 -110 122 -3 0
-9 -32 -13 -72 -6 -70 -33 -149 -55 -162 -17 -11 -48 68 -56 139 -3 33 -2 82
4 110 11 60 6 68 -20 35 -30 -38 -50 -79 -75 -150 l-22 -65 -18 63 c-9 34 -20
62 -24 62 -16 0 -44 -86 -44 -136 0 -44 -3 -51 -14 -42 -27 23 -64 112 -70
172 l-7 61 -46 -46 c-25 -25 -54 -64 -64 -87 -21 -48 -30 -47 -38 4 -7 39 -52
124 -67 124 -6 0 -10 -21 -10 -47 0 -46 -36 -143 -58 -157 -13 -8 -59 98 -67
157 -4 26 -11 47 -15 47 -14 0 -42 -84 -49 -150 l-7 -65 -8 49 c-12 67 -1 222
18 275 9 24 14 46 11 49 -18 18 -125 -141 -125 -187 0 -14 -2 -14 -10 -1 -5 8
-10 31 -10 51 0 54 -36 184 -66 239 -30 55 -79 118 -87 110 -3 -3 3 -36 13
-75 19 -70 25 -218 11 -280 l-6 -30 -18 46 c-10 25 -29 56 -42 69 l-25 23 0
-64 c0 -50 -6 -77 -29 -124 -15 -33 -37 -68 -48 -78 -20 -17 -20 -17 -33 27
-7 25 -11 78 -8 120 3 63 9 86 45 156 37 73 39 80 20 74 -57 -18 -132 -83
-161 -139 -16 -30 -16 -30 -16 35 0 105 -39 226 -94 295 -32 39 -40 29 -21
-26 36 -101 60 -301 39 -322 -3 -3 -20 21 -36 54 -32 65 -52 77 -40 27 11 -50
7 -201 -5 -223 -11 -18 -14 -16 -35 30 -30 66 -37 218 -14 298 21 72 20 75 -8
48 -56 -53 -105 -200 -107 -326 l-1 -60 -21 45 c-17 36 -21 64 -21 143 l0 97
-34 -32 c-19 -18 -47 -55 -63 -83 -16 -27 -29 -45 -29 -40 0 6 11 66 25 135
29 147 31 206 9 301 -17 74 -34 91 -34 34 0 -88 -63 -313 -131 -464 -30 -67
-34 -71 -42 -50 -13 35 -2 234 17 303 9 32 14 61 12 64 -9 8 -67 -63 -91 -113
-26 -52 -48 -135 -61 -220 l-7 -50 -9 34 c-5 19 -8 61 -6 93 2 32 0 58 -3 58
-11 0 -79 -87 -115 -147 l-34 -57 0 156 0 156 -65 58 c-36 31 -68 54 -72 51
-3 -4 1 -24 10 -44 48 -110 48 -229 1 -393 l-16 -55 -34 39 c-49 57 -76 137
-72 213 2 35 0 63 -4 63 -4 0 -16 -26 -28 -57 -26 -69 -36 -181 -22 -243 10
-42 10 -43 -5 -25 -25 32 -60 116 -73 176 -13 56 -9 210 5 257 14 43 -14 22
-38 -30 -51 -108 -71 -196 -72 -308 l0 -105 -49 99 c-41 83 -121 194 -132 183
-2 -1 8 -38 21 -80 18 -56 25 -99 24 -155 0 -77 0 -77 -13 -37 -20 62 -51 117
-86 150 l-32 30 9 -40 c12 -61 8 -156 -9 -195 l-16 -35 -21 48 c-34 78 -54
167 -55 250 0 42 -4 77 -7 77 -14 0 -61 -128 -66 -179 -6 -50 -7 -52 -19 -30
-23 45 -64 203 -71 273 l-6 69 -35 -69 c-43 -85 -87 -205 -97 -263 l-7 -43
-19 41 c-30 68 -120 191 -138 191 -3 0 -7 -30 -7 -68 -1 -37 -7 -80 -14 -97
l-12 -30 -15 30 c-19 36 -105 145 -115 145 -4 0 -5 -21 -1 -48 4 -33 0 -59
-12 -87 l-17 -40 -20 43 c-21 46 -28 138 -15 189 14 53 -11 40 -38 -19 -14
-29 -30 -79 -36 -111 l-12 -58 -28 52 c-31 56 -95 139 -108 139 -4 0 -6 -33
-3 -74 6 -91 -14 -189 -33 -163 -7 9 -15 48 -18 85 -7 83 -37 173 -76 227 -40
56 -52 55 -34 -2 10 -30 16 -86 16 -148 1 -81 -3 -111 -22 -157 -12 -32 -26
-58 -31 -58 -14 0 -23 85 -18 176 2 46 1 84 -4 84 -5 0 -22 -27 -37 -60 l-29
-61 -6 48 c-9 65 8 187 38 275 13 40 23 75 21 77 -8 7 -56 -55 -80 -104 -29
-57 -55 -168 -55 -235 l0 -45 -25 41 c-13 23 -39 52 -57 66 -37 28 -98 61
-103 56 -2 -2 15 -41 38 -87 40 -80 42 -89 42 -170 -1 -47 -7 -99 -14 -116
l-13 -30 -24 30 c-48 59 -69 116 -69 187 0 38 -3 68 -7 68 -14 0 -58 -68 -64
-99 -10 -49 -23 -18 -30 71 -6 66 6 163 32 258 7 25 7 25 -25 -5 -64 -60 -130
-244 -132 -367 l0 -43 -23 61 c-25 67 -48 104 -95 148 -35 34 -37 32 -16 -17
10 -25 15 -70 14 -144 l0 -108 -22 60 c-12 33 -26 59 -32 58 -5 -1 -15 -29
-21 -61 -7 -33 -22 -79 -34 -102 l-22 -44 -19 25 c-26 35 -52 124 -47 166 l4
36 -31 -36 c-33 -38 -55 -95 -55 -143 0 -25 -4 -20 -28 31 -17 34 -48 77 -73
100 l-44 40 -6 -65 c-3 -36 -15 -83 -26 -105 l-21 -40 -35 78 c-35 75 -57 97
-57 57 0 -11 -7 -37 -16 -58 l-16 -37 -18 57 c-20 64 -58 134 -88 161 -20 18
-20 18 -10 -25 19 -85 -10 -278 -43 -278 -18 0 -50 84 -59 157 -6 42 -12 78
-14 80 -8 9 -88 -71 -106 -106 l-19 -36 0 80 c-1 65 4 90 24 134 14 30 24 56
22 58 -2 2 -22 -11 -45 -29 -45 -36 -95 -97 -119 -143 l-16 -29 -27 79 c-15
44 -37 100 -50 125 l-24 45 -7 -30 c-4 -16 -21 -86 -37 -155 -16 -69 -35 -138
-42 -155 l-12 -30 -24 30 c-48 59 -52 109 -18 193 20 47 -124 -63 -176 -136
l-40 -55 0 42 c0 23 -7 58 -15 78 -18 42 -62 103 -74 103 -5 0 -11 -30 -13
-67 -3 -50 -12 -84 -33 -127 -17 -32 -34 -59 -40 -59 -5 0 -19 15 -30 34 -24
40 -27 150 -6 212 7 21 11 41 8 43 -10 10 -66 -26 -97 -63 -17 -21 -38 -64
-47 -96 l-17 -59 -18 36 c-19 37 -41 125 -53 211 l-7 50 -24 -45 c-12 -25 -35
-80 -49 -123 l-27 -77 -37 58 c-46 70 -141 156 -141 127 0 -4 7 -20 17 -38 26
-51 43 -127 43 -196 l0 -64 -31 61 c-26 52 -89 122 -110 122 -3 0 -9 -32 -13
-72 -6 -70 -33 -149 -55 -162 -7 -5 -19 10 -33 41 -23 51 -31 179 -15 236 6
22 5 28 -5 25 -21 -7 -67 -89 -92 -163 l-23 -68 -18 61 c-10 34 -22 62 -25 62
-16 0 -44 -87 -44 -136 0 -44 -3 -51 -14 -42 -27 23 -64 112 -70 172 l-7 61
-45 -45 c-25 -25 -54 -64 -64 -87 -10 -24 -22 -43 -26 -43 -4 0 -10 18 -13 40
-5 42 -51 130 -67 130 -6 0 -10 -21 -10 -47 0 -46 -36 -143 -58 -157 -13 -8
-59 98 -67 157 -4 26 -11 47 -15 47 -15 0 -42 -86 -48 -150 -8 -90 -20 -44
-21 82 -1 70 4 113 19 159 10 35 17 65 14 68 -17 17 -124 -143 -124 -188 0
-14 -2 -14 -10 -1 -5 8 -10 31 -10 51 0 52 -35 179 -64 236 -26 52 -81 121
-89 113 -3 -3 3 -36 13 -75 19 -70 25 -218 11 -280 l-6 -30 -18 46 c-10 25
-29 56 -42 69 l-25 23 0 -59 c0 -76 -22 -141 -64 -190 l-32 -38 -13 47 c-8 26
-12 78 -9 121 3 63 9 86 45 155 22 45 37 81 31 81 -37 0 -143 -89 -172 -145
-16 -30 -16 -30 -16 35 0 105 -39 226 -94 295 -32 39 -40 29 -21 -26 36 -101
60 -301 39 -322 -3 -3 -20 21 -36 54 -31 61 -54 80 -41 32 12 -43 9 -206 -4
-228 -11 -18 -14 -16 -35 30 -30 66 -37 218 -14 298 21 72 20 75 -8 48 -56
-53 -105 -202 -106 -326 -1 -56 -2 -58 -14 -35 -24 44 -38 138 -31 203 l7 62
-37 -35 c-20 -19 -50 -57 -66 -85 -16 -27 -29 -45 -29 -40 0 6 11 66 25 135
29 147 31 206 9 301 -17 74 -34 91 -34 34z"/>
</g>
</svg>
